<?xml version="1.0" encoding="utf-8"?>
<!-- Generator: Adobe Illustrator 16.0.0, SVG Export Plug-In . SVG Version: 6.00 Build 0)  -->
<!DOCTYPE svg PUBLIC "-//W3C//DTD SVG 1.1//EN" "http://www.w3.org/Graphics/SVG/1.1/DTD/svg11.dtd">
<svg version="1.1" id="Layer_1" xmlns="http://www.w3.org/2000/svg" xmlns:xlink="http://www.w3.org/1999/xlink" x="0px" y="0px"
	 width="200px" height="200px" viewBox="0 0 200 200" enable-background="new 0 0 200 200" xml:space="preserve">
<g>
	<path fill-rule="evenodd" clip-rule="evenodd" fill="#FFFFFF" d="M177.434,200c-44.792,0-89.583,0-134.375,0
		c-0.495-0.136-0.984-0.299-1.485-0.404c-9.154-1.927-16.327-9.401-16.371-18.653c-0.235-50.696-0.142-101.395-0.085-152.094
		c0.014-13.172,9.437-24.889,22.198-28.001C48.499,0.559,49.686,0.282,50.871,0c42.187,0,84.374,0,126.563,0
		c0,56.853,0,113.705,0,170.772c-4.03,0-7.832,0-11.624,0c0,5.915,0,11.617,0,17.532c3.889,0,7.688,0,11.624,0
		C177.434,192.345,177.434,196.173,177.434,200z M165.58,158.984c0-49.216,0-98.184,0-147.266c-0.773,0-1.417,0-2.06,0
		c-35.993,0-71.984-0.003-107.977,0.001C44.245,11.721,36.812,19.13,36.81,30.396c-0.004,42.762-0.001,85.522-0.001,128.284
		c0,0.678,0,1.356,0,2.294c4.092-1.975,8.169-2.009,12.285-2.005c38.01,0.026,76.02,0.016,114.029,0.016
		C163.896,158.984,164.67,158.984,165.58,158.984z M153.995,170.703c-0.88,0-1.52,0-2.158,0c-35.08,0-70.16,0-105.241,0.001
		c-0.521,0-1.042-0.013-1.562,0.021c-4.529,0.285-8.152,4.087-8.22,8.61c-0.077,5.154,3.907,8.941,9.471,8.943
		c35.275,0.007,70.551,0.003,105.826,0.003c0.567,0,1.135,0,1.803,0c0.035-0.497,0.077-0.806,0.077-1.116
		C153.996,181.769,153.995,176.374,153.995,170.703z"/>
	<path fill-rule="evenodd" clip-rule="evenodd" fill="#FFFFFF" d="M107.027,117.512c-3.865,0-7.624,0-11.539,0
		c-0.28-4.31-2.884-7.263-5.992-9.806c-3.621-2.963-7.531-5.586-11.031-8.679c-3.144-2.779-6.352-5.677-8.741-9.079
		c-5.992-8.537-4.479-19.62,3.093-26.091c7.827-6.688,19.16-6.447,26.866,0.572c0.477,0.435,0.942,0.884,1.538,1.443
		c0.646-0.57,1.272-1.102,1.876-1.658c9.132-8.406,20.884-5.426,26.863-0.139c7.439,6.576,8.582,17.549,2.733,26.218
		c-2.848,4.22-6.748,7.348-10.695,10.449c-3.778,2.969-7.571,5.935-11.178,9.106C108.318,112.048,107.533,114.059,107.027,117.512z
		 M101.414,102.308c2.474-2.107,5.047-4.396,7.724-6.556c2.633-2.124,5.516-3.955,8.018-6.214c2.339-2.111,4.686-4.384,6.375-7.006
		c2.289-3.552,1.314-7.656-1.713-9.966c-3.411-2.604-7.957-2.623-10.841,0.423c-1.882,1.987-3.426,4.411-4.657,6.871
		c-1.841,3.68-3.277,7.563-5.073,11.802c-1.796-4.264-3.24-8.147-5.059-11.849c-1.157-2.356-2.612-4.68-4.387-6.595
		c-3.011-3.247-7.629-3.334-11.137-0.625c-3.151,2.435-3.858,6.733-1.428,10.526c1.174,1.833,2.693,3.549,4.372,4.935
		C89.463,92.891,95.458,97.563,101.414,102.308z"/>
	<path fill-rule="evenodd" clip-rule="evenodd" fill="#FFFFFF" d="M77.683,35.205c-5.847,0-11.55,0-17.395,0
		c0,5.975,0,11.809,0,17.78c-3.938,0-7.732,0-11.646,0c0-9.793,0-19.577,0-29.454c9.686,0,19.292,0,29.041,0
		C77.683,27.329,77.683,31.125,77.683,35.205z"/>
	<path fill-rule="evenodd" clip-rule="evenodd" fill="#FFFFFF" d="M142.228,52.984c0-5.977,0-11.811,0-17.786
		c-5.845,0-11.548,0-17.389,0c0-3.936,0-7.733,0-11.645c9.663,0,19.317,0,29.063,0c0,9.815,0,19.552,0,29.431
		C150.104,52.984,146.309,52.984,142.228,52.984z"/>
	<path fill-rule="evenodd" clip-rule="evenodd" fill="#FFFFFF" d="M60.266,117.733c0,5.932,0,11.767,0,17.741
		c5.845,0,11.548,0,17.404,0c0,3.937,0,7.733,0,11.66c-9.62,0-19.272,0-29.034,0c0-9.771,0-19.509,0-29.401
		C52.389,117.733,56.184,117.733,60.266,117.733z"/>
	<path fill-rule="evenodd" clip-rule="evenodd" fill="#FFFFFF" d="M142.28,135.589c0-6.113,0-11.946,0-17.895
		c3.939,0,7.734,0,11.621,0c0,9.816,0,19.554,0,29.431c-9.659,0-19.313,0-29.085,0c0-3.799,0-7.595,0-11.536
		C130.592,135.589,136.295,135.589,142.28,135.589z"/>
</g>
</svg>
