<?xml version="1.0" encoding="utf-8"?>
<!-- Generator: Adobe Illustrator 16.0.0, SVG Export Plug-In . SVG Version: 6.00 Build 0)  -->
<!DOCTYPE svg PUBLIC "-//W3C//DTD SVG 1.1//EN" "http://www.w3.org/Graphics/SVG/1.1/DTD/svg11.dtd">
<svg version="1.1" id="Layer_1" xmlns="http://www.w3.org/2000/svg" xmlns:xlink="http://www.w3.org/1999/xlink" x="0px" y="0px"
	 width="200px" height="200px" viewBox="0 0 200 200" enable-background="new 0 0 200 200" xml:space="preserve">
<g>
	<path fill-rule="evenodd" clip-rule="evenodd" fill="#FFFFFF" d="M161.859,199.333c-0.649,0-1.298,0-1.947,0
		c-0.359-0.133-0.708-0.308-1.077-0.396c-40.366-9.457-80.735-18.905-121.104-28.358c-3.207-0.753-4.02-2.083-3.273-5.342
		c0.907-3.962,1.812-7.919,2.705-11.823c-0.282-0.161-0.389-0.27-0.505-0.282c-2.446-0.297-4.888-0.635-7.34-0.863
		c-4.989-0.469-5.827-1.483-5.156-6.424c0.027-0.191,0.076-0.383,0.098-0.573c0.435-3.842,0.867-7.681,1.32-11.705
		c-2.463,0-4.725,0.002-6.985,0c-3.946-0.002-4.922-0.977-4.923-4.955C13.668,87.409,13.68,46.206,13.639,5.003
		C13.637,2.909,14.104,1.217,15.863,0c43.084,0,86.169,0,129.255,0c1.746,1.224,2.24,2.914,2.221,5.007
		c-0.081,8.304-0.033,16.608-0.033,24.912c0,0.751,0,1.503,0,2.291c6.717,0.797,13.151,1.525,19.574,2.344
		c2.492,0.318,3.542,1.697,3.283,4.142c-0.47,4.448-1.006,8.89-1.512,13.334c-0.438,3.849-0.874,7.697-1.32,11.653
		c7.38,1.741,14.619,3.44,21.854,5.159c3.781,0.897,4.485,2.124,3.579,5.996c-9.396,40.177-18.795,80.355-28.154,120.542
		C164.2,197.128,163.533,198.541,161.859,199.333z M158.358,191.726c9.135-39.036,18.201-77.783,27.296-116.645
		c-6.46-1.504-12.681-2.956-19.057-4.442c-0.171,1.237-0.331,2.25-0.448,3.269c-1.227,10.625-2.444,21.25-3.669,31.875
		c-1.635,14.164-3.278,28.329-4.914,42.496c-0.557,4.829-1.066,9.663-1.667,14.487c-0.356,2.868-1.771,3.897-4.666,3.577
		c-3.092-0.343-6.187-0.671-9.276-1.029c-13.971-1.625-27.939-3.265-41.911-4.884c-15.323-1.777-30.647-3.542-45.972-5.307
		c-3.265-0.374-6.534-0.722-9.93-1.093c-0.827,3.585-1.603,6.952-2.408,10.436C80.716,173.578,119.413,182.624,158.358,191.726z
		 M31.184,145.558c39.467,4.55,78.725,9.077,118.175,13.624c4.547-39.434,9.079-78.738,13.628-118.18
		c-5.293-0.606-10.35-1.186-15.681-1.796c0,1.069,0,1.889,0,2.711c0,28.87,0,57.74-0.002,86.612c0,4.105-0.937,5.038-5.033,5.038
		c-35.682,0-71.364,0-107.045,0c-0.835,0-1.669,0-2.655,0C32.108,137.56,31.663,141.411,31.184,145.558z M20.677,126.548
		c39.911,0,79.711,0,119.592,0c0-39.9,0-79.69,0-119.471c-39.943,0-79.746,0-119.592,0C20.677,46.958,20.677,86.698,20.677,126.548z
		"/>
	<path fill-rule="evenodd" clip-rule="evenodd" fill="#FFFFFF" d="M80.506,119.959c-16.153,0-32.305,0.002-48.458-0.002
		c-3.698,0-4.767-1.054-4.767-4.729c-0.004-32.305-0.005-64.61,0-96.915c0-3.568,1.115-4.686,4.628-4.687
		c32.369-0.002,64.739-0.002,97.109,0c3.538,0,4.667,1.107,4.668,4.644c0.007,32.369,0.008,64.74-0.001,97.11
		c0,3.511-1.114,4.575-4.723,4.575C112.811,119.961,96.658,119.959,80.506,119.959z M34.289,20.648c0,30.868,0,61.526,0,92.252
		c30.859,0,61.613,0,92.399,0c0-30.828,0-61.484,0-92.252C95.868,20.648,65.151,20.648,34.289,20.648z"/>
	<path fill-rule="evenodd" clip-rule="evenodd" fill="#FFFFFF" d="M103.027,63.663c3.567-2.286,7.152-3.095,10.994-1.942
		c4.735,1.421,7.803,4.584,8.864,9.412c1.116,5.077-0.451,9.42-4.521,12.627c-3.202,2.524-6.64,4.75-9.979,7.098
		c-2.703,1.901-5.402,3.81-8.128,5.677c-2.393,1.639-4.088,1.33-5.785-1.059c-2.516-3.54-4.988-7.108-7.485-10.659
		c-0.364-0.517-0.767-1.006-1.244-1.629c-2.179,3.101-4.251,6.074-6.346,9.03c-1.836,2.592-3.472,2.894-6.057,1.088
		c-9.19-6.42-18.404-12.809-27.542-19.303c-6.422-4.563-9.222-10.879-7.625-18.612c1.54-7.458,6.347-12.179,13.807-13.916
		c4.611-1.074,9.014-0.247,13.08,2.204c0.987,0.595,1.934,1.259,3.018,1.97c0.583-0.802,1.096-1.531,1.63-2.244
		c5.407-7.212,14.877-9.45,22.756-5.383c7.877,4.067,11.603,13.091,8.736,21.636C100.475,61.823,102.43,62.182,103.027,63.663z
		 M75.2,86.176c2.04-2.901,4.042-5.674,5.932-8.524c0.256-0.386,0.088-1.211-0.127-1.732c-3.662-8.829,2.397-17.943,11.96-17.841
		c1.35,0.015,1.768-0.449,2.042-1.649c1.124-4.915-1.312-10.105-5.898-12.369c-4.649-2.295-10.233-1.085-13.503,3.02
		c-1.331,1.67-2.452,3.504-3.73,5.218c-1.394,1.867-3.149,2.189-5.097,0.929c-1.522-0.985-2.968-2.088-4.472-3.102
		c-5.401-3.645-12.05-2.551-15.651,2.56c-3.582,5.083-2.331,11.774,2.962,15.578c3.368,2.42,6.785,4.771,10.184,7.148
		C64.89,78.972,69.983,82.529,75.2,86.176z M98.605,89.314c5.258-3.707,10.438-7.252,15.494-10.966
		c2.634-1.937,3.002-5.434,1.132-7.954c-1.808-2.438-5.071-2.997-7.812-1.294c-1.1,0.683-2.109,1.509-3.212,2.184
		c-1.836,1.125-3.466,0.832-4.804-0.848c-0.686-0.859-1.262-1.804-1.917-2.689c-2.208-2.988-5.565-3.668-8.311-1.697
		c-2.67,1.917-3.163,5.279-1.118,8.26c2.601,3.79,5.269,7.535,7.911,11.297C96.817,86.813,97.678,88.01,98.605,89.314z"/>
</g>
</svg>
