<?xml version="1.0" encoding="utf-8"?>
<!-- Generator: Adobe Illustrator 16.0.0, SVG Export Plug-In . SVG Version: 6.00 Build 0)  -->
<!DOCTYPE svg PUBLIC "-//W3C//DTD SVG 1.1//EN" "http://www.w3.org/Graphics/SVG/1.1/DTD/svg11.dtd">
<svg version="1.1" id="Layer_1" xmlns="http://www.w3.org/2000/svg" xmlns:xlink="http://www.w3.org/1999/xlink" x="0px" y="0px"
	 width="200px" height="200px" viewBox="0 0 200 200" enable-background="new 0 0 200 200" xml:space="preserve">
<g>
	<path fill="#FFFFFF" d="M163.032,171.148c0,5.281,0,10.259,0,15.529c3.422,0,6.797-0.048,10.17,0.014
		c3.003,0.057,5.588,2.086,6.339,4.83c0.771,2.824-0.314,6.014-2.904,7.389c-1.34,0.707-3.029,1.051-4.562,1.055
		c-27.084,0.061-54.169,0.043-81.254,0.043c-16.46,0-32.92,0.047-49.379-0.02c-10.397-0.043-18.823-7.071-20.8-17.245
		c-0.328-1.69-0.405-3.451-0.406-5.179c-0.02-50.004-0.039-100.007,0-150.012c0.009-13.363,8.413-24.025,21.1-26.883
		c2.211-0.498,4.537-0.67,6.811-0.671c41.253-0.034,82.505-0.02,123.757-0.013c5.381,0,7.873,2.487,7.877,7.913
		c0.009,25.904,0.004,51.81,0.004,77.714c0.001,25.696,0.002,51.393-0.001,77.09c-0.001,6.102-2.339,8.438-8.433,8.443
		C168.65,171.15,165.947,171.148,163.032,171.148z M65.979,13.404c0,48.182,0,96.198,0,144.268c33.509,0,66.876,0,100.31,0
		c0-48.152,0-96.169,0-144.268C132.809,13.404,99.488,13.404,65.979,13.404z M33.554,158.473c6.412-0.318,12.591-0.627,18.838-0.938
		c0-48.002,0-96.013,0-144.227c-1.257,0-2.419,0-3.582,0c-9.767,0.002-15.251,5.44-15.253,15.172
		c-0.007,42.768-0.003,85.535-0.003,128.303C33.554,157.527,33.554,158.273,33.554,158.473z M149.543,171.148
		c-0.945,0-1.697,0-2.45,0c-34.798,0-69.595,0-104.393,0c-0.695,0-1.392-0.01-2.083,0.043c-3.662,0.279-6.628,3.207-6.962,6.848
		c-0.459,5.002,3.03,8.627,8.379,8.628c35.214,0.011,70.429,0.006,105.644,0c0.602,0,1.201-0.071,1.866-0.115
		C149.543,181.432,149.543,176.451,149.543,171.148z"/>
	<path fill="#FFFFFF" d="M155.227,74.651c-0.223,6.403-2.222,12.104-6.675,16.667c-9.118,9.341-18.375,18.546-27.638,27.743
		c-2.881,2.863-6.775,2.783-9.662-0.088c-8.958-8.914-17.946-17.803-26.782-26.833c-8.996-9.198-9.698-23.014-1.874-32.825
		c7.644-9.584,21.48-12.008,32.31-5.563c1.164,0.693,1.839,0.331,2.771-0.216c14.373-8.435,32.719-0.752,36.672,15.379
		C154.811,70.786,154.941,72.738,155.227,74.651z M116.041,104.729c7.705-7.606,15.575-14.958,22.939-22.784
		c5.785-6.15,2.291-16.268-5.933-18.255c-4.47-1.082-8.161,0.339-11.323,3.55c-3.815,3.876-7.252,3.857-11.149,0.023
		c-0.296-0.292-0.587-0.592-0.896-0.871c-4.656-4.218-11.396-4.102-15.783,0.271c-4.365,4.351-4.632,11.266-0.25,15.758
		C101.012,89.972,108.582,97.321,116.041,104.729z"/>
</g>
</svg>
